#!OML:ASF F:\VICON\USERDATA\INSTALL\rory3\rory3.ASF
:FULLY-SPECIFIED
:DEGREES
289
root -0.161402 17.93 -0.360549 2.79698 -10.5311 2.58247
lowerback -0.866498 -1.60855 -4.76069
upperback -1.9687 -2.12654 2.65186
thorax -1.27041 -0.982721 5.41897
lowerneck -32.8915 -1.17251 -8.49675
upperneck 1.90944 0.861509 7.22539
head 5.4032 0.941062 3.87297
rclavicle -5.19325e-015 -1.35174e-014
rhumerus -33.2231 -0.637521 -79.8827
rradius 30.2945
rwrist 20.0132
rhand -18.2705 8.32007
rfingers 7.12502
rthumb 8.00929 -21.5082
lclavicle -5.19325e-015 -1.35174e-014
lhumerus 56.7084 8.98617 48.7189
lradius 99.408
lwrist -17.6266
lhand -47.5008 21.0621
lfingers 7.12502
lthumb -20.1887 50.033
rfemur -7.82493 8.80758 13.8233
rtibia 26.6549
rfoot -18.3635 -2.69378
rtoes 4.02729
lfemur 3.27677 -1.96536 -23.2931
ltibia 8.85587
lfoot -10.276 6.47268
ltoes -13.3041
290
root -0.16239 17.9297 -0.360591 2.82562 -10.5107 2.55003
lowerback -0.826696 -1.64242 -4.75321
upperback -2.01846 -2.17342 2.69113
thorax -1.33699 -1.00294 5.45793
lowerneck -32.7569 -1.14036 -8.5092
upperneck 1.81017 0.909124 7.14228
head 5.34895 0.954695 3.84914
rclavicle -7.82715e-015 -3.18055e-015
rhumerus -33.239 -0.506085 -79.8942
rradius 30.2777
rwrist 20.0393
rhand -18.323 8.25457
rfingers 7.12502
rthumb 7.95858 -21.5756
lclavicle -7.82715e-015 -3.18055e-015
lhumerus 56.5608 8.95908 48.7095
lradius 99.444
lwrist -17.5781
lhand -47.3931 20.615
lfingers 7.12502
lthumb -20.0852 49.5968
rfemur -7.82376 8.80837 13.853
rtibia 26.6402
rfoot -18.3846 -2.66714
rtoes 4.06623
lfemur 3.24715 -1.9853 -23.2522
ltibia 8.90306
lfoot -10.2595 6.46202
ltoes -13.4088
291
root -0.163229 17.9285 -0.361593 2.81152 -10.5301 2.55124
lowerback -0.775101 -1.63504 -4.77371
upperback -2.02344 -2.16574 2.69008
thorax -1.37149 -0.997617 5.47038
lowerneck -32.7529 -1.11705 -8.40099
upperneck 1.84906 0.914719 6.97727
head 5.36036 0.943251 3.7767
rclavicle 3.50606e-014 1.59028e-014
rhumerus -33.2567 -0.441217 -79.9305
rradius 30.3188
rwrist 19.972
rhand -18.3662 8.22173
rfingers 7.12502
rthumb 7.9169 -21.61
lclavicle 3.50606e-014 1.59028e-014
lhumerus 56.5003 8.86821 48.7013
lradius 99.4587
lwrist -17.609
lhand -47.4049 20.3248
lfingers 7.12502
lthumb -20.0965 49.3054
rfemur -7.80211 8.82934 13.8517
rtibia 26.6299
rfoot -18.4348 -2.61715
rtoes 4.13979
lfemur 3.24407 -1.96469 -23.2573
ltibia 8.94794
lfoot -10.2854 6.45036
ltoes -13.3028
292
root -0.163597 17.9297 -0.36094 2.8207 -10.5241 2.57539
lowerback -0.802823 -1.67846 -4.81223
upperback -2.03419 -2.22275 2.69856
thorax -1.35802 -1.0258 5.50015
lowerneck -32.6779 -1.04889 -8.35445
upperneck 1.95795 0.989128 6.86295
head 5.3809 0.967349 3.73982
rclavicle 2.21272e-014 1.59028e-015
rhumerus -33.2544 -0.208862 -80.0127
rradius 30.3604
rwrist 19.8147
rhand -18.4377 8.32608
rfingers 7.12502
rthumb 7.84787 -21.5083
lclavicle 2.21272e-014 1.59028e-015
lhumerus 56.3556 8.89023 48.6758
lradius 99.5235
lwrist -17.6758
lhand -47.2628 20.1895
lfingers 7.12502
lthumb -19.9599 49.1844
rfemur -7.82299 8.80181 13.8265
rtibia 26.6277
rfoot -18.4202 -2.63514
rtoes 3.96251
lfemur 3.19894 -1.97174 -23.2879
ltibia 9.01529
lfoot -10.3234 6.4659
ltoes -13.5366
293
root -0.163445 17.9304 -0.36268 2.79923 -10.496 2.61447
lowerback -0.778028 -1.72533 -4.84478
upperback -2.01902 -2.28641 2.69567
thorax -1.34693 -1.05801 5.51575
lowerneck -32.6038 -1.02225 -8.4671
upperneck 1.947 1.04799 6.9802
head 5.36342 1.00406 3.80381
rclavicle -8.17502e-015 -5.56597e-015
rhumerus -33.2401 0.0244813 -80.1061
rradius 30.4637
rwrist 19.6104
rhand -18.4659 8.31336
rfingers 7.12502
rthumb 7.82066 -21.522
lclavicle -8.17502e-015 -5.56597e-015
lhumerus 56.2535 8.97244 48.6271
lradius 99.5506
lwrist -17.7271
lhand -47.1786 19.9361
lfingers 7.12502
lthumb -19.879 48.9394
rfemur -7.81988 8.75519 13.787
rtibia 26.6198
rfoot -18.3588 -2.64635
rtoes 3.70478
lfemur 3.1619 -1.9998 -23.3397
ltibia 9.10923
lfoot -10.3174 6.50979
ltoes -13.9432
294
root -0.164301 17.9297 -0.365457 2.81769 -10.4825 2.59343
lowerback -0.73543 -1.73638 -4.85473
upperback -2.01109 -2.30287 2.70216
thorax -1.3599 -1.06586 5.52941
lowerneck -32.5452 -0.999078 -8.47067
upperneck 1.83264 1.07491 7.00317
head 5.31625 1.01908 3.81333
rclavicle -1.39149e-014 -1.59028e-014
rhumerus -33.2775 0.202816 -80.1709
rradius 30.6096
rwrist 19.4549
rhand -18.4144 8.1955
rfingers 7.12502
rthumb 7.87034 -21.638
lclavicle -1.39149e-014 -1.59028e-014
lhumerus 56.2058 8.95855 48.5744
lradius 99.5404
lwrist -17.7025
lhand -47.1664 20.0074
lfingers 7.12502
lthumb -19.8672 49.0119
rfemur -7.82134 8.80409 13.8107
rtibia 26.6032
rfoot -18.365 -2.61834
rtoes 4.21832
lfemur 3.06968 -2.01273 -23.3145
ltibia 9.23007
lfoot -10.3409 6.54132
ltoes -14.1899
295
root -0.165207 17.9306 -0.366244 2.85471 -10.4646 2.53395
lowerback -0.697427 -1.73673 -4.80735
upperback -2.01912 -2.30475 2.70893
thorax -1.3907 -1.06628 5.51105
lowerneck -32.5389 -0.993836 -8.47504
upperneck 1.7843 1.08168 7.02492
head 5.29903 1.02456 3.82161
rclavicle -7.8023e-015 1.82882e-014
rhumerus -33.275 0.272712 -80.2112
rradius 30.6299
rwrist 19.395
rhand -18.3264 8.11024
rfingers 7.12502
rthumb 7.95536 -21.7201
lclavicle -7.8023e-015 1.82882e-014
lhumerus 56.1224 8.85461 48.5585
lradius 99.5557
lwrist -17.5874
lhand -47.1813 20.0847
lfingers 7.12502
lthumb -19.8816 49.0877
rfemur -7.82952 8.81297 13.8792
rtibia 26.5869
rfoot -18.3726 -2.66315
rtoes 4.33813
lfemur 2.96701 -2.02931 -23.2398
ltibia 9.34593
lfoot -10.3729 6.57151
ltoes -14.3582
296
root -0.165229 17.9302 -0.368592 2.85623 -10.4603 2.5097
lowerback -0.615601 -1.70574 -4.78136
upperback -2.00274 -2.26674 2.67761
thorax -1.42678 -1.04701 5.46614
lowerneck -32.7383 -1.01328 -8.39603
upperneck 1.92718 1.04085 7.00021
head 5.37486 1.00554 3.80043
rclavicle 2.47735e-014 -6.36111e-015
rhumerus -33.1597 0.113495 -80.2249
rradius 30.5098
rwrist 19.4565
rhand -18.4111 8.18087
rfingers 7.12502
rthumb 7.87361 -21.6525
lclavicle 2.47735e-014 -6.36111e-015
lhumerus 56.1413 8.71492 48.5599
lradius 99.5701
lwrist -17.404
lhand -47.3517 19.7833
lfingers 7.12502
lthumb -20.0453 48.7693
rfemur -7.83018 8.80685 13.9108
rtibia 26.573
rfoot -18.3272 -2.69108
rtoes 4.22727
lfemur 2.9198 -2.032 -23.2117
ltibia 9.43899
lfoot -10.436 6.54968
ltoes -14.0343
297
root -0.166017 17.9306 -0.370789 2.84147 -10.4677 2.49345
lowerback -0.555477 -1.63642 -4.77183
upperback -1.95209 -2.1768 2.60792
thorax -1.42271 -1.00372 5.38899
lowerneck -32.8722 -1.04047 -8.16809
upperneck 1.96794 0.948471 6.81487
head 5.41259 0.948712 3.69205
rclavicle -3.48743e-014 -1.98785e-014
rhumerus -33.0775 -0.182049 -80.249
rradius 30.4351
rwrist 19.4778
rhand -18.5105 8.31331
rfingers 7.12502
rthumb 7.77767 -21.5236
lclavicle -3.48743e-014 -1.98785e-014
lhumerus 56.3368 8.55182 48.5745
lradius 99.5119
lwrist -17.3121
lhand -47.3205 19.4144
lfingers 7.12502
lthumb -20.0153 48.4035
rfemur -7.81926 8.87732 13.9371
rtibia 26.5701
rfoot -18.3373 -2.73339
rtoes 4.30722
lfemur 2.8885 -2.02286 -23.1832
ltibia 9.48346
lfoot -10.4906 6.49585
ltoes -13.2571
298
root -0.167041 17.9309 -0.370734 2.86642 -10.4799 2.48524
lowerback -0.528316 -1.59375 -4.79404
upperback -1.94945 -2.12115 2.5902
thorax -1.4423 -0.975042 5.38409
lowerneck -32.8645 -1.046 -8.04008
upperneck 1.97575 0.913896 6.61965
head 5.41634 0.915664 3.60072
rclavicle -3.18677e-015 1.90833e-014
rhumerus -33.1105 -0.170335 -80.2792
rradius 30.4852
rwrist 19.382
rhand -18.5154 8.32131
rfingers 7.12502
rthumb 7.77291 -21.5158
lclavicle -3.18677e-015 1.90833e-014
lhumerus 56.3981 8.45113 48.5874
lradius 99.4201
lwrist -17.4461
lhand -47.2196 19.2225
lfingers 7.12502
lthumb -19.9183 48.2217
rfemur -7.85569 8.88613 13.9435
rtibia 26.5766
rfoot -18.345 -2.7341
rtoes 4.06983
lfemur 2.82984 -2.01115 -23.1747
ltibia 9.50556
lfoot -10.4932 6.49938
ltoes -12.9969
299
root -0.167541 17.9314 -0.372484 2.86704 -10.5125 2.48318
lowerback -0.455871 -1.61661 -4.81816
upperback -1.99439 -2.15485 2.62529
thorax -1.52313 -0.987842 5.4379
lowerneck -32.7021 -1.02883 -8.22454
upperneck 2.00807 0.982845 6.72353
head 5.40109 0.953705 3.67196
rclavicle -2.045e-014 -2.54444e-014
rhumerus -33.2 0.0410208 -80.3085
rradius 30.5666
rwrist 19.4019
rhand -18.4393 8.34297
rfingers 7.12502
rthumb 7.84632 -21.4914
lclavicle -2.045e-014 -2.54444e-014
lhumerus 56.1751 8.44358 48.5932
lradius 99.3251
lwrist -17.7753
lhand -47.1539 19.1415
lfingers 7.12502
lthumb -19.8552 48.1473
rfemur -7.87393 8.87407 13.9447
rtibia 26.5868
rfoot -18.3365 -2.69934
rtoes 3.97663
lfemur 2.83809 -1.97799 -23.1766
ltibia 9.52129
lfoot -10.4632 6.55993
ltoes -13.8114
